<?xml version="1.0" encoding="utf-8"?>
<svg viewBox="0 0 384 96" xmlns="http://www.w3.org/2000/svg">
  <defs/>
  <path d="M 31.1 69.85 Q 28.7 69.85 27.26 69.29 Q 25.82 68.73 25.18 67.57 Q 24.54 66.41 24.54 64.57 L 24.54 57.49 Q 24.54 55.01 23.54 53.95 Q 22.54 52.89 20.14 52.89 L 20.14 51.89 Q 22.54 51.89 23.54 50.83 Q 24.54 49.77 24.54 47.21 L 24.54 40.25 Q 24.54 38.41 25.18 37.25 Q 25.82 36.09 27.26 35.53 Q 28.7 34.97 31.1 34.97 L 31.1 35.97 Q 29.02 35.97 27.82 36.41 Q 26.62 36.85 26.12 37.81 Q 25.62 38.77 25.62 40.37 L 25.62 47.41 Q 25.62 49.41 24.92 50.71 Q 24.22 52.01 22.46 52.29 L 22.46 52.37 Q 24.22 52.73 24.92 54.03 Q 25.62 55.33 25.62 57.33 L 25.62 64.45 Q 25.62 66.85 26.78 67.85 Q 27.94 68.85 31.1 68.85 Z M 51.54 63.93 Q 47.9 63.93 45.6 62.51 Q 43.3 61.09 42.2 58.67 Q 41.1 56.25 41.1 53.29 Q 41.1 49.89 42.44 47.37 Q 43.78 44.85 46.3 43.45 Q 48.82 42.05 52.34 42.05 Q 53.74 42.05 55.06 42.29 Q 56.38 42.53 57.5 43.01 L 57.3 44.05 Q 56.1 43.49 54.76 43.27 Q 53.42 43.05 52.26 43.05 Q 49.14 43.05 46.88 44.31 Q 44.62 45.57 43.4 47.85 Q 42.18 50.13 42.18 53.25 Q 42.18 55.85 43.14 58.07 Q 44.1 60.29 46.18 61.61 Q 48.26 62.93 51.54 62.93 Q 53.06 62.93 54.62 62.63 Q 56.18 62.33 57.34 61.85 L 57.34 62.89 Q 56.34 63.29 54.82 63.61 Q 53.3 63.93 51.54 63.93 Z M 65.7 63.53 L 65.7 33.13 L 66.74 33.13 L 66.74 43.69 Q 66.74 44.65 66.72 45.39 Q 66.7 46.13 66.66 47.05 L 66.74 47.05 Q 67.14 45.73 68.08 44.59 Q 69.02 43.45 70.56 42.75 Q 72.1 42.05 74.3 42.05 Q 77.66 42.05 79.58 43.89 Q 81.5 45.73 81.5 49.53 L 81.5 63.53 L 80.46 63.53 L 80.46 49.73 Q 80.46 46.21 78.82 44.63 Q 77.18 43.05 74.26 43.05 Q 72.02 43.05 70.32 43.95 Q 68.62 44.85 67.68 46.71 Q 66.74 48.57 66.74 51.45 L 66.74 63.53 Z M 98.5 67.09 Q 94.58 67.09 91.8 65.21 Q 89.02 63.33 87.56 59.89 Q 86.1 56.45 86.1 51.77 Q 86.1 47.73 87 44.63 Q 87.9 41.53 89.52 39.37 Q 91.14 37.21 93.36 36.11 Q 95.58 35.01 98.22 35.01 Q 101.58 35.01 103.98 36.75 Q 106.38 38.49 107.64 41.69 Q 108.9 44.89 108.9 49.29 Q 108.9 51.33 108.62 53.07 Q 108.34 54.81 107.76 56.15 Q 107.18 57.49 106.34 58.23 Q 105.5 58.97 104.34 58.97 Q 102.98 58.97 102.12 58.07 Q 101.26 57.17 101.1 55.65 L 101.02 55.65 Q 100.46 57.25 99.28 58.11 Q 98.1 58.97 96.66 58.97 Q 94.5 58.97 93.34 57.13 Q 92.18 55.29 92.18 52.05 Q 92.18 49.41 92.94 47.37 Q 93.7 45.33 95.14 44.17 Q 96.58 43.01 98.62 43.01 Q 99.46 43.01 100.42 43.21 Q 101.38 43.41 102.3 43.81 L 102.02 49.61 Q 101.98 50.33 101.92 51.37 Q 101.86 52.41 101.86 53.25 Q 101.86 55.57 102.4 56.77 Q 102.94 57.97 104.26 57.97 Q 105.5 57.97 106.28 56.83 Q 107.06 55.69 107.44 53.75 Q 107.82 51.81 107.82 49.41 Q 107.82 43.21 105.4 39.61 Q 102.98 36.01 98.34 36.01 Q 95.06 36.01 92.54 37.87 Q 90.02 39.73 88.6 43.25 Q 87.18 46.77 87.18 51.85 Q 87.18 56.25 88.52 59.45 Q 89.86 62.65 92.38 64.37 Q 94.9 66.09 98.42 66.09 Q 100.18 66.09 101.94 65.65 Q 103.7 65.21 105.34 64.37 L 105.34 65.49 Q 103.86 66.25 102.1 66.67 Q 100.34 67.09 98.5 67.09 Z M 96.78 57.97 Q 98.54 57.97 99.6 56.21 Q 100.66 54.45 100.9 50.61 L 101.26 44.61 Q 100.62 44.29 99.94 44.15 Q 99.26 44.01 98.62 44.01 Q 96.94 44.01 95.74 44.97 Q 94.54 45.93 93.9 47.73 Q 93.26 49.53 93.26 52.01 Q 93.26 54.81 94.12 56.39 Q 94.98 57.97 96.78 57.97 Z M 125.94 63.93 Q 123.54 63.93 122.18 63.01 Q 120.82 62.09 120.26 60.39 Q 119.7 58.69 119.7 56.33 L 119.7 43.41 L 112.86 43.41 L 112.86 42.57 L 119.66 42.41 L 119.86 37.17 L 120.74 37.17 L 120.74 42.41 L 129.42 42.41 L 129.42 43.41 L 120.74 43.41 L 120.74 56.21 Q 120.74 58.37 121.2 59.87 Q 121.66 61.37 122.78 62.15 Q 123.9 62.93 125.94 62.93 Q 126.94 62.93 127.7 62.79 Q 128.46 62.65 129.1 62.41 L 129.1 63.41 Q 128.46 63.61 127.72 63.77 Q 126.98 63.93 125.94 63.93 Z M 149.94 63.93 Q 147.54 63.93 146.18 63.01 Q 144.82 62.09 144.26 60.39 Q 143.7 58.69 143.7 56.33 L 143.7 43.41 L 136.86 43.41 L 136.86 42.57 L 143.66 42.41 L 143.86 37.17 L 144.74 37.17 L 144.74 42.41 L 153.42 42.41 L 153.42 43.41 L 144.74 43.41 L 144.74 56.21 Q 144.74 58.37 145.2 59.87 Q 145.66 61.37 146.78 62.15 Q 147.9 62.93 149.94 62.93 Q 150.94 62.93 151.7 62.79 Q 152.46 62.65 153.1 62.41 L 153.1 63.41 Q 152.46 63.61 151.72 63.77 Q 150.98 63.93 149.94 63.93 Z M 166.02 73.41 Q 165.5 73.41 164.98 73.31 Q 164.46 73.21 163.9 73.01 L 163.9 71.97 Q 164.46 72.17 164.96 72.29 Q 165.46 72.41 166.02 72.41 Q 167.06 72.41 167.8 71.95 Q 168.54 71.49 169.16 70.47 Q 169.78 69.45 170.38 67.77 L 172.02 63.29 L 164.14 42.41 L 165.22 42.41 L 170.7 57.01 Q 171.38 58.73 171.74 59.73 Q 172.1 60.73 172.54 61.97 L 172.62 61.97 Q 172.9 61.13 173.16 60.45 Q 173.42 59.77 173.74 58.91 Q 174.06 58.05 174.54 56.81 L 179.98 42.41 L 181.1 42.41 L 171.26 68.29 Q 170.62 70.01 169.9 71.15 Q 169.18 72.29 168.26 72.85 Q 167.34 73.41 166.02 73.41 Z M 222.54 63.93 Q 218.9 63.93 216.6 62.51 Q 214.3 61.09 213.2 58.67 Q 212.1 56.25 212.1 53.29 Q 212.1 49.89 213.44 47.37 Q 214.78 44.85 217.3 43.45 Q 219.82 42.05 223.34 42.05 Q 224.74 42.05 226.06 42.29 Q 227.38 42.53 228.5 43.01 L 228.3 44.05 Q 227.1 43.49 225.76 43.27 Q 224.42 43.05 223.26 43.05 Q 220.14 43.05 217.88 44.31 Q 215.62 45.57 214.4 47.85 Q 213.18 50.13 213.18 53.25 Q 213.18 55.85 214.14 58.07 Q 215.1 60.29 217.18 61.61 Q 219.26 62.93 222.54 62.93 Q 224.06 62.93 225.62 62.63 Q 227.18 62.33 228.34 61.85 L 228.34 62.89 Q 227.34 63.29 225.82 63.61 Q 224.3 63.93 222.54 63.93 Z M 244.5 63.93 Q 242.18 63.93 240.44 63.11 Q 238.7 62.29 237.56 60.81 Q 236.42 59.33 235.86 57.33 Q 235.3 55.33 235.3 52.97 Q 235.3 49.61 236.42 47.15 Q 237.54 44.69 239.64 43.37 Q 241.74 42.05 244.7 42.05 Q 247.9 42.05 249.88 43.51 Q 251.86 44.97 252.78 47.41 Q 253.7 49.85 253.7 52.85 Q 253.7 55.21 253.14 57.23 Q 252.58 59.25 251.46 60.75 Q 250.34 62.25 248.6 63.09 Q 246.86 63.93 244.5 63.93 Z M 244.5 62.93 Q 247.3 62.93 249.1 61.65 Q 250.9 60.37 251.76 58.11 Q 252.62 55.85 252.62 52.93 Q 252.62 50.17 251.84 47.93 Q 251.06 45.69 249.32 44.37 Q 247.58 43.05 244.7 43.05 Q 240.78 43.05 238.58 45.67 Q 236.38 48.29 236.38 53.01 Q 236.38 55.93 237.26 58.17 Q 238.14 60.41 239.96 61.67 Q 241.78 62.93 244.5 62.93 Z M 267.74 63.93 Q 265.62 63.93 264.04 63.23 Q 262.46 62.53 261.4 61.17 Q 260.34 59.81 259.82 57.85 Q 259.3 55.89 259.3 53.37 Q 259.3 49.69 260.34 47.17 Q 261.38 44.65 263.34 43.35 Q 265.3 42.05 268.06 42.05 Q 270.18 42.05 271.62 42.77 Q 273.06 43.49 273.94 44.65 Q 274.82 45.81 275.26 47.17 L 275.34 47.17 Q 275.3 46.25 275.28 45.35 Q 275.26 44.45 275.26 43.55 Q 275.26 42.65 275.26 41.81 L 275.26 33.13 L 276.3 33.13 L 276.3 63.53 L 275.42 63.53 L 275.34 59.01 L 275.26 59.01 Q 274.74 60.41 273.78 61.53 Q 272.82 62.65 271.34 63.29 Q 269.86 63.93 267.74 63.93 Z M 267.82 62.93 Q 271.86 62.93 273.56 60.33 Q 275.26 57.73 275.26 53.01 L 275.26 52.89 Q 275.26 49.69 274.48 47.49 Q 273.7 45.29 272.12 44.17 Q 270.54 43.05 268.06 43.05 Q 264.42 43.05 262.4 45.61 Q 260.38 48.17 260.38 53.37 Q 260.38 58.13 262.26 60.53 Q 264.14 62.93 267.82 62.93 Z M 292.5 44.89 Q 291.78 44.89 291.54 44.47 Q 291.3 44.05 291.3 43.49 Q 291.3 42.93 291.54 42.51 Q 291.78 42.09 292.5 42.09 Q 293.26 42.09 293.44 42.51 Q 293.62 42.93 293.62 43.49 Q 293.62 44.05 293.44 44.47 Q 293.26 44.89 292.5 44.89 Z M 292.5 64.01 Q 291.78 64.01 291.54 63.59 Q 291.3 63.17 291.3 62.61 Q 291.3 62.05 291.54 61.63 Q 291.78 61.21 292.5 61.21 Q 293.26 61.21 293.44 61.63 Q 293.62 62.05 293.62 62.61 Q 293.62 63.17 293.44 63.59 Q 293.26 64.01 292.5 64.01 Z M 311.5 63.53 L 311.5 62.69 L 318.46 62.53 L 318.46 43.41 L 312.22 43.25 L 312.22 42.41 L 319.5 42.41 L 319.5 47.25 L 319.62 47.25 Q 320.14 45.09 321.92 43.59 Q 323.7 42.09 326.42 42.09 Q 327.46 42.09 328.5 42.25 Q 329.54 42.41 330.18 42.61 L 329.94 43.65 Q 329.18 43.41 328.28 43.27 Q 327.38 43.13 326.38 43.13 Q 324.1 43.13 322.56 44.29 Q 321.02 45.45 320.26 47.59 Q 319.5 49.73 319.5 52.61 L 319.5 62.53 L 327.5 62.69 L 327.5 63.53 Z M 337.9 34.97 Q 340.3 34.97 341.74 35.53 Q 343.18 36.09 343.82 37.25 Q 344.46 38.41 344.46 40.25 L 344.46 47.33 Q 344.46 49.81 345.46 50.87 Q 346.46 51.93 348.86 51.93 L 348.86 52.93 Q 346.46 52.93 345.46 53.99 Q 344.46 55.05 344.46 57.61 L 344.46 64.57 Q 344.46 66.41 343.82 67.57 Q 343.18 68.73 341.74 69.29 Q 340.3 69.85 337.9 69.85 L 337.9 68.85 Q 340.02 68.85 341.2 68.41 Q 342.38 67.97 342.88 67.01 Q 343.38 66.05 343.38 64.45 L 343.38 57.41 Q 343.38 55.41 344.08 54.11 Q 344.78 52.81 346.54 52.53 L 346.54 52.45 Q 344.78 52.09 344.08 50.77 Q 343.38 49.45 343.38 47.49 L 343.38 40.37 Q 343.38 37.97 342.22 36.97 Q 341.06 35.97 337.9 35.97 Z" />
</svg>
